{
	"patcher" : 	{
		"fileversion" : 1,
		"appversion" : 		{
			"major" : 7,
			"minor" : 3,
			"revision" : 3,
			"architecture" : "x64",
			"modernui" : 1
		}
,
		"rect" : [ 61.0, 79.0, 1158.0, 667.0 ],
		"bglocked" : 0,
		"openinpresentation" : 0,
		"default_fontsize" : 12.0,
		"default_fontface" : 0,
		"default_fontname" : "Arial",
		"gridonopen" : 1,
		"gridsize" : [ 15.0, 15.0 ],
		"gridsnaponopen" : 1,
		"objectsnaponopen" : 1,
		"statusbarvisible" : 2,
		"toolbarvisible" : 1,
		"lefttoolbarpinned" : 0,
		"toptoolbarpinned" : 0,
		"righttoolbarpinned" : 0,
		"bottomtoolbarpinned" : 0,
		"toolbars_unpinned_last_save" : 0,
		"tallnewobj" : 0,
		"boxanimatetime" : 200,
		"enablehscroll" : 1,
		"enablevscroll" : 1,
		"devicewidth" : 0.0,
		"description" : "",
		"digest" : "",
		"tags" : "",
		"style" : "",
		"subpatcher_template" : "",
		"boxes" : [ 			{
				"box" : 				{
					"comment" : "",
					"id" : "obj-1",
					"index" : 0,
					"maxclass" : "inlet",
					"numinlets" : 0,
					"numoutlets" : 1,
					"outlettype" : [ "" ],
					"patching_rect" : [ 613.0, 11.5, 30.0, 30.0 ],
					"style" : ""
				}

			}
, 			{
				"box" : 				{
					"attr" : "codec",
					"id" : "obj-8",
					"maxclass" : "attrui",
					"numinlets" : 1,
					"numoutlets" : 1,
					"outlettype" : [ "" ],
					"patching_rect" : [ 529.0, 418.0, 196.0, 22.0 ],
					"style" : ""
				}

			}
, 			{
				"box" : 				{
					"id" : "obj-7",
					"maxclass" : "message",
					"numinlets" : 2,
					"numoutlets" : 1,
					"outlettype" : [ "" ],
					"patching_rect" : [ 591.0, 314.0, 74.0, 22.0 ],
					"style" : "",
					"text" : "getcodeclist"
				}

			}
, 			{
				"box" : 				{
					"data" : 					{
						"clips" : [ 							{
								"filename" : "social.aif",
								"filekind" : "audiofile",
								"loop" : 1,
								"content_state" : 								{
									"timestretch" : [ 0 ],
									"quality" : [ "basic" ],
									"formantcorrection" : [ 0 ],
									"mode" : [ "basic" ],
									"slurtime" : [ 0.0 ],
									"speed" : [ 1.0 ],
									"basictuning" : [ 440 ],
									"formant" : [ 1.0 ],
									"originallength" : [ 0.0, "ticks" ],
									"pitchshift" : [ 1.0 ],
									"pitchcorrection" : [ 0 ],
									"followglobaltempo" : [ 0 ],
									"originaltempo" : [ 120.0 ],
									"originallengthms" : [ 0.0 ],
									"play" : [ 0 ]
								}

							}
 ]
					}
,
					"id" : "obj-4",
					"maxclass" : "playlist~",
					"numinlets" : 1,
					"numoutlets" : 5,
					"outlettype" : [ "signal", "signal", "signal", "", "dictionary" ],
					"patching_rect" : [ 436.0, 246.0, 150.0, 30.0 ],
					"style" : ""
				}

			}
, 			{
				"box" : 				{
					"data" : 					{
						"clips" : [ 							{
								"filename" : "Macintosh HD:/Users/fguntz/Documents/2016-2017-S4/tournage ALT/video2-PhotoJPEG.mov",
								"filekind" : "moviefile",
								"loop" : 1,
								"content_state" : 								{
									"outputmode" : [ 1 ],
									"out_name" : [ "u655000387" ],
									"dim" : [ 1, 1 ],
									"unique" : [ 0 ],
									"drawto" : [ "" ],
									"framereport" : [ 0 ],
									"adapt" : [ 1 ],
									"engine" : [ "avf" ],
									"dstrect" : [ 0, 0, 1, 1 ],
									"timescale" : [ 600 ],
									"texture_name" : [ "u796000385" ],
									"interp" : [ 0 ],
									"usesrcrect" : [ 0 ],
									"framecount" : [ 0 ],
									"looppoints" : [ 0, 0 ],
									"duration" : [ 0 ],
									"cache_size" : [ 0.1 ],
									"fps" : [ 0.0 ],
									"time_secs" : [ 0.0 ],
									"usedstrect" : [ 0 ],
									"time" : [ 0 ],
									"autostart" : [ 1 ],
									"loopend" : [ 0 ],
									"moviefile" : [ "" ],
									"srcrect" : [ 0, 0, 1, 1 ],
									"colormode" : [ "argb" ],
									"rate" : [ 1.0 ],
									"position" : [ 0.0 ],
									"loopreport" : [ 0 ],
									"vol" : [ 1.0 ],
									"output_texture" : [ 0 ],
									"automatic" : [ 0 ],
									"loopstart" : [ 0 ]
								}

							}
 ]
					}
,
					"id" : "obj-2",
					"maxclass" : "jit.playlist",
					"numinlets" : 1,
					"numoutlets" : 3,
					"outlettype" : [ "jit_matrix", "", "dictionary" ],
					"patching_rect" : [ 109.0, 223.0, 150.0, 30.0 ],
					"style" : ""
				}

			}
, 			{
				"box" : 				{
					"id" : "obj-52",
					"linecount" : 4,
					"maxclass" : "comment",
					"numinlets" : 1,
					"numoutlets" : 0,
					"patching_rect" : [ 11.0, 93.5, 233.0, 60.0 ],
					"style" : "",
					"text" : "ATTENTION le fichier vidéo ne doit pas déjà existé jit.vcr ne peut pas écraser un fichier existant vous aurez alors un message d'erreur dans la console MAX"
				}

			}
, 			{
				"box" : 				{
					"id" : "obj-48",
					"maxclass" : "jit.pwindow",
					"numinlets" : 1,
					"numoutlets" : 2,
					"outlettype" : [ "", "" ],
					"patching_rect" : [ 242.0, 483.0, 257.0, 155.0 ]
				}

			}
, 			{
				"box" : 				{
					"id" : "obj-43",
					"linecount" : 5,
					"maxclass" : "comment",
					"numinlets" : 1,
					"numoutlets" : 0,
					"patching_rect" : [ 11.0, 11.5, 237.0, 74.0 ],
					"style" : "",
					"text" : "pour le moteur de rendu il faut choisir avf\nMAX -> Preferences -> All -> video engine = avf\npour les PC essayer avec viddll, mais pas garanti je n'ai pas essayé"
				}

			}
, 			{
				"box" : 				{
					"id" : "obj-41",
					"maxclass" : "comment",
					"numinlets" : 1,
					"numoutlets" : 0,
					"patching_rect" : [ 62.0, 437.5, 150.0, 20.0 ],
					"style" : "",
					"text" : "le son doit être activé"
				}

			}
, 			{
				"box" : 				{
					"id" : "obj-39",
					"maxclass" : "ezdac~",
					"numinlets" : 2,
					"numoutlets" : 0,
					"patching_rect" : [ 15.0, 425.0, 45.0, 45.0 ],
					"style" : ""
				}

			}
, 			{
				"box" : 				{
					"id" : "obj-38",
					"linecount" : 3,
					"maxclass" : "comment",
					"numinlets" : 1,
					"numoutlets" : 0,
					"patching_rect" : [ 713.0, 467.0, 215.0, 47.0 ],
					"style" : "",
					"text" : "le fichier se placera dans le même répertoire que le patch dans lequel se trouve le patch d'export vidéo jit.vcr"
				}

			}
, 			{
				"box" : 				{
					"id" : "obj-36",
					"linecount" : 5,
					"maxclass" : "comment",
					"numinlets" : 1,
					"numoutlets" : 0,
					"patching_rect" : [ 842.0, 349.0, 150.0, 74.0 ],
					"style" : "",
					"text" : "arguments message write\nnom fichier\nfps\ncodec\nqualité"
				}

			}
, 			{
				"box" : 				{
					"id" : "obj-34",
					"linecount" : 2,
					"maxclass" : "comment",
					"numinlets" : 1,
					"numoutlets" : 0,
					"patching_rect" : [ 396.0, 127.0, 427.0, 33.0 ],
					"style" : "",
					"text" : "enregistrement = on déclenche enregistrement on lance l'audio on lance la vidéo"
				}

			}
, 			{
				"box" : 				{
					"id" : "obj-33",
					"maxclass" : "newobj",
					"numinlets" : 1,
					"numoutlets" : 3,
					"outlettype" : [ "int", "int", "bang" ],
					"patching_rect" : [ 342.0, 132.5, 44.0, 22.0 ],
					"style" : "",
					"text" : "t 1 1 b"
				}

			}
, 			{
				"box" : 				{
					"id" : "obj-32",
					"linecount" : 2,
					"maxclass" : "comment",
					"numinlets" : 1,
					"numoutlets" : 0,
					"patching_rect" : [ 374.0, 88.5, 366.0, 33.0 ],
					"style" : "",
					"text" : "arret enregistrement = on coupe audio puis coupe video puis arret enregistrement"
				}

			}
, 			{
				"box" : 				{
					"id" : "obj-30",
					"maxclass" : "newobj",
					"numinlets" : 1,
					"numoutlets" : 3,
					"outlettype" : [ "stop", "int", "int" ],
					"patching_rect" : [ 314.0, 88.5, 60.0, 22.0 ],
					"style" : "",
					"text" : "t stop 0 0"
				}

			}
, 			{
				"box" : 				{
					"id" : "obj-25",
					"maxclass" : "newobj",
					"numinlets" : 3,
					"numoutlets" : 3,
					"outlettype" : [ "bang", "bang", "" ],
					"patching_rect" : [ 314.0, 58.0, 46.0, 22.0 ],
					"style" : "",
					"text" : "sel 0 1"
				}

			}
, 			{
				"box" : 				{
					"id" : "obj-24",
					"maxclass" : "toggle",
					"numinlets" : 1,
					"numoutlets" : 1,
					"outlettype" : [ "int" ],
					"parameter_enable" : 0,
					"patching_rect" : [ 314.0, 20.0, 24.0, 24.0 ],
					"style" : ""
				}

			}
, 			{
				"box" : 				{
					"id" : "obj-21",
					"maxclass" : "message",
					"numinlets" : 2,
					"numoutlets" : 1,
					"outlettype" : [ "" ],
					"patching_rect" : [ 348.0, 355.0, 448.0, 22.0 ],
					"style" : "",
					"text" : "write \"Macintosh HD:/Users/fguntz/Documents/video2.mov\" 25. photojpeg lossless"
				}

			}
, 			{
				"box" : 				{
					"id" : "obj-19",
					"maxclass" : "comment",
					"numinlets" : 1,
					"numoutlets" : 0,
					"patching_rect" : [ 342.0, 20.0, 217.0, 20.0 ],
					"style" : "",
					"text" : "déclenchement/arret enregistrement"
				}

			}
, 			{
				"box" : 				{
					"id" : "obj-6",
					"maxclass" : "newobj",
					"numinlets" : 3,
					"numoutlets" : 2,
					"outlettype" : [ "jit_matrix", "" ],
					"patching_rect" : [ 242.0, 446.0, 191.0, 22.0 ],
					"style" : "",
					"text" : "jit.vcr @dim 320 240 @engine avf"
				}

			}
 ],
		"lines" : [ 			{
				"patchline" : 				{
					"destination" : [ "obj-25", 0 ],
					"disabled" : 0,
					"hidden" : 0,
					"source" : [ "obj-1", 0 ]
				}

			}
, 			{
				"patchline" : 				{
					"destination" : [ "obj-6", 2 ],
					"disabled" : 0,
					"hidden" : 0,
					"source" : [ "obj-2", 0 ]
				}

			}
, 			{
				"patchline" : 				{
					"destination" : [ "obj-6", 0 ],
					"disabled" : 0,
					"hidden" : 0,
					"source" : [ "obj-21", 0 ]
				}

			}
, 			{
				"patchline" : 				{
					"destination" : [ "obj-25", 0 ],
					"disabled" : 0,
					"hidden" : 0,
					"source" : [ "obj-24", 0 ]
				}

			}
, 			{
				"patchline" : 				{
					"destination" : [ "obj-30", 0 ],
					"disabled" : 0,
					"hidden" : 0,
					"source" : [ "obj-25", 0 ]
				}

			}
, 			{
				"patchline" : 				{
					"destination" : [ "obj-33", 0 ],
					"disabled" : 0,
					"hidden" : 0,
					"source" : [ "obj-25", 1 ]
				}

			}
, 			{
				"patchline" : 				{
					"destination" : [ "obj-2", 0 ],
					"disabled" : 0,
					"hidden" : 0,
					"source" : [ "obj-30", 1 ]
				}

			}
, 			{
				"patchline" : 				{
					"destination" : [ "obj-4", 0 ],
					"disabled" : 0,
					"hidden" : 0,
					"source" : [ "obj-30", 2 ]
				}

			}
, 			{
				"patchline" : 				{
					"destination" : [ "obj-6", 0 ],
					"disabled" : 0,
					"hidden" : 0,
					"source" : [ "obj-30", 0 ]
				}

			}
, 			{
				"patchline" : 				{
					"destination" : [ "obj-2", 0 ],
					"disabled" : 0,
					"hidden" : 0,
					"source" : [ "obj-33", 0 ]
				}

			}
, 			{
				"patchline" : 				{
					"destination" : [ "obj-21", 0 ],
					"disabled" : 0,
					"hidden" : 0,
					"source" : [ "obj-33", 2 ]
				}

			}
, 			{
				"patchline" : 				{
					"destination" : [ "obj-4", 0 ],
					"disabled" : 0,
					"hidden" : 0,
					"source" : [ "obj-33", 1 ]
				}

			}
, 			{
				"patchline" : 				{
					"destination" : [ "obj-6", 1 ],
					"disabled" : 0,
					"hidden" : 0,
					"source" : [ "obj-4", 1 ]
				}

			}
, 			{
				"patchline" : 				{
					"destination" : [ "obj-6", 0 ],
					"disabled" : 0,
					"hidden" : 0,
					"source" : [ "obj-4", 0 ]
				}

			}
, 			{
				"patchline" : 				{
					"destination" : [ "obj-48", 0 ],
					"disabled" : 0,
					"hidden" : 0,
					"source" : [ "obj-6", 0 ]
				}

			}
, 			{
				"patchline" : 				{
					"destination" : [ "obj-6", 0 ],
					"disabled" : 0,
					"hidden" : 0,
					"source" : [ "obj-7", 0 ]
				}

			}
, 			{
				"patchline" : 				{
					"destination" : [ "obj-6", 0 ],
					"disabled" : 0,
					"hidden" : 0,
					"source" : [ "obj-8", 0 ]
				}

			}
 ],
		"dependency_cache" : [ 			{
				"name" : "video2-PhotoJPEG.mov",
				"bootpath" : "~/Documents/2016-2017-S4/tournage ALT",
				"type" : "MooV",
				"implicit" : 1
			}
, 			{
				"name" : "social.aif",
				"bootpath" : "C74:/packages/max-mxj/examples",
				"type" : "AIFF",
				"implicit" : 1
			}
 ],
		"autosave" : 0
	}

}
